<?xml version="1.0" encoding="UTF-8" standalone="no"?>
<svg
   width="16"
   height="16"
   version="1.1"
   id="svg1"
   sodipodi:docname="light_normal_color_picker.svg"
   inkscape:version="1.4.3 (0d15f75042, 2025-12-25)"
   xmlns:inkscape="http://www.inkscape.org/namespaces/inkscape"
   xmlns:sodipodi="http://sodipodi.sourceforge.net/DTD/sodipodi-0.dtd"
   xmlns="http://www.w3.org/2000/svg"
   xmlns:svg="http://www.w3.org/2000/svg">
  <sodipodi:namedview
     id="namedview1"
     pagecolor="#ffffff"
     bordercolor="#000000"
     borderopacity="0.25"
     inkscape:showpageshadow="2"
     inkscape:pageopacity="0.0"
     inkscape:pagecheckerboard="0"
     inkscape:deskcolor="#d1d1d1"
     inkscape:zoom="49.1875"
     inkscape:cx="8"
     inkscape:cy="8"
     inkscape:window-width="1894"
     inkscape:window-height="1005"
     inkscape:window-x="10"
     inkscape:window-y="59"
     inkscape:window-maximized="1"
     inkscape:current-layer="svg1" />
  <defs
     id="defs1">
    <style
       id="current-color-scheme"
       type="text/css">
   .ColorScheme-Text { color:#444444; } .ColorScheme-Highlight { color:#4285f4; } .ColorScheme-NeutralText { color:#ff9800; } .ColorScheme-PositiveText { color:#4caf50; } .ColorScheme-NegativeText { color:#f44336; }
  </style>
  </defs>
  <path
     style="fill:#cb3a2a;fill-opacity:1"
     class="ColorScheme-Text"
     d="M 11.109,1 C 10.85,1 10.602,1.1093 10.418,1.2931 L 1.293,10.418 C 0.90259,10.808 0.90259,11.442 1.293,11.832 L 4.168,14.707 C 4.5605,15.099 5.1915,15.097 5.582,14.707 L 14.707,5.5821 C 15.095,5.1938 15.101,4.5623 14.707,4.1681 L 11.832,1.2931 C 11.641,1.1017 11.38,1 11.109,1 Z M 7.6367,6.9259 9.0742,8.3634 4.875,12.586 3.4141,11.125 Z M 5,3 A 2,2 0 0 1 3,5 2,2 0 0 1 1,3 2,2 0 0 1 3,1 2,2 0 0 1 5,3 Z"
     id="path1" />
</svg>
